<?xml version="1.0" standalone="no"?>
<!DOCTYPE svg PUBLIC "-//W3C//DTD SVG 20010904//EN"
 "http://www.w3.org/TR/2001/REC-SVG-20010904/DTD/svg10.dtd">
<svg version="1.0" xmlns="http://www.w3.org/2000/svg"
 width="700.000000pt" height="700.000000pt" viewBox="0 0 700.000000 700.000000"
 preserveAspectRatio="xMidYMid meet">
<metadata>
Created by potrace 1.11, written by Peter Selinger 2001-2013
</metadata>
<g transform="translate(0.000000,700.000000) scale(0.100000,-0.100000)"
fill="#000000" stroke="none">
<path d="M3447 6563 c-1 -1 -56 -4 -122 -7 -66 -3 -129 -8 -140 -10 -11 -2
-49 -7 -85 -11 -354 -39 -806 -192 -1136 -386 -575 -337 -998 -814 -1278
-1442 -84 -187 -185 -535 -210 -722 -15 -113 -26 -208 -31 -275 -7 -82 -7
-364 -1 -420 2 -19 7 -66 10 -105 4 -38 9 -81 11 -95 3 -14 7 -41 9 -60 6 -43
31 -172 52 -260 65 -275 211 -625 367 -876 51 -82 182 -271 196 -284 3 -3 38
-43 77 -90 651 -778 1682 -1183 2699 -1059 128 15 117 14 325 55 74 15 361
103 374 115 6 5 16 9 24 9 45 0 382 168 550 274 406 257 703 561 991 1016 168
266 337 720 386 1040 3 19 7 46 10 60 42 232 48 592 14 845 -15 119 -23 166
-44 265 -90 426 -280 843 -546 1195 -118 157 -165 211 -291 337 -401 399 -934
693 -1468 812 -138 30 -172 36 -314 56 -94 12 -422 30 -429 23z m258 -447
c119 -10 166 -16 295 -42 115 -23 358 -89 370 -101 8 -7 6 -1364 -2 -1369 -4
-2 -48 20 -99 51 -50 30 -93 55 -95 55 -2 0 -33 18 -69 40 -36 22 -68 40 -70
40 -3 0 -24 12 -46 26 -23 14 -60 36 -82 49 -23 12 -168 96 -322 185 -154 90
-296 172 -315 183 -63 35 -502 289 -650 375 -80 46 -165 96 -190 109 -25 14
-72 41 -104 61 -71 42 -75 38 99 116 146 66 285 114 450 154 123 31 153 37
240 48 28 3 52 8 55 9 3 2 53 7 110 10 58 4 106 8 108 9 4 4 242 -2 317 -8z
m1205 -404 c491 -313 878 -805 1067 -1357 50 -147 123 -441 111 -449 -5 -3
-348 -201 -388 -224 -19 -11 -186 -107 -370 -214 -271 -157 -439 -254 -512
-294 -3 -2 -6 581 -6 1296 l0 1300 21 -12 c12 -6 46 -27 77 -46z m-2950 -234
c52 -30 115 -66 140 -80 64 -36 82 -46 415 -238 165 -95 316 -182 335 -193 75
-42 176 -101 193 -112 15 -10 2 -21 -100 -79 -65 -37 -125 -71 -133 -76 -19
-12 -111 -65 -485 -280 -165 -95 -358 -207 -430 -248 -71 -41 -200 -115 -285
-164 -85 -49 -162 -93 -170 -98 -8 -6 -31 -18 -50 -29 -19 -11 -140 -80 -269
-155 -128 -75 -237 -136 -241 -136 -4 0 -6 10 -5 23 1 12 6 65 9 117 4 51 9
96 10 100 2 3 6 28 10 57 5 44 25 149 42 218 3 11 8 33 11 50 5 33 77 253 98
300 7 17 25 59 40 95 117 274 323 577 542 795 111 110 211 197 221 191 4 -2
50 -28 102 -58z m1658 -952 c61 -36 131 -76 154 -89 24 -13 131 -75 238 -137
107 -63 204 -119 215 -125 11 -6 49 -28 85 -49 l65 -38 0 -583 c0 -374 -4
-587 -10 -593 -8 -7 -344 -203 -500 -292 -16 -10 -55 -32 -85 -50 -70 -42
-160 -94 -229 -133 -46 -25 -57 -28 -74 -17 -11 6 -34 20 -51 30 -58 33 -430
249 -556 323 -19 11 -53 30 -75 42 -22 12 -69 40 -105 61 l-65 39 0 580 0 580
21 20 c12 11 39 29 60 40 22 11 68 37 103 58 35 22 79 48 98 58 19 11 93 53
164 94 71 41 189 109 262 151 72 42 136 80 142 85 16 16 30 10 143 -55z
m-1430 -1995 l0 -1299 -37 20 c-124 70 -288 194 -436 330 -87 81 -134 130
-236 248 -216 251 -415 640 -512 1000 -28 105 -61 260 -55 265 2 3 291 170
479 279 20 12 157 91 303 176 146 85 278 161 291 168 14 7 63 35 108 62 45 27
85 49 88 50 4 0 7 -585 7 -1299z m3936 842 c-16 -231 -43 -387 -100 -588 -56
-199 -155 -435 -244 -581 -22 -36 -40 -68 -40 -71 0 -11 -139 -206 -205 -288
-119 -146 -364 -384 -389 -377 -6 2 -105 58 -221 124 -115 67 -226 130 -245
141 -70 39 -735 420 -738 422 -3 3 120 75 508 298 124 71 239 137 255 147 17
10 71 41 120 69 50 28 97 55 105 61 8 5 42 24 75 43 33 18 89 51 125 72 36 20
85 49 110 63 25 14 57 33 72 43 14 11 28 19 31 19 3 0 41 21 84 47 43 25 94
55 113 65 19 10 51 28 70 39 62 37 294 171 339 197 25 14 70 40 100 58 31 18
61 33 67 34 6 0 9 -16 8 -37z m-3444 -998 c22 -14 41 -25 44 -25 2 0 33 -17
67 -38 35 -22 84 -50 109 -64 25 -14 101 -58 170 -98 139 -80 175 -101 223
-129 17 -10 104 -60 192 -111 88 -51 249 -144 358 -206 109 -63 216 -126 237
-139 22 -14 42 -25 44 -25 3 0 33 -17 68 -37 35 -21 79 -47 99 -58 20 -11 129
-74 243 -140 l207 -119 -78 -40 c-144 -72 -389 -162 -523 -192 -19 -4 -37 -8
-40 -9 -20 -5 -119 -26 -139 -30 -13 -2 -49 -7 -80 -11 -31 -3 -59 -8 -63 -10
-10 -7 -226 -18 -328 -17 -99 0 -289 11 -299 17 -3 2 -31 7 -62 10 -31 4 -67
9 -80 12 -13 3 -37 7 -54 10 -53 9 -258 64 -315 85 l-55 20 1 682 c1 375 2
683 3 685 3 5 14 1 51 -23z"/>
</g>
</svg>
